<svg width="24" height="24" viewBox="0 0 24 24" fill="none" xmlns="http://www.w3.org/2000/svg">
<path d="M3.25 13H6.93C7.25918 13 7.58329 13.0812 7.87357 13.2364C8.16384 13.3917 8.4113 13.6162 8.594 13.89L9.406 15.11C9.5887 15.3838 9.83616 15.6083 10.1264 15.7636C10.4167 15.9188 10.7408 16 11.07 16H12.93C13.2592 16 13.5833 15.9188 13.8736 15.7636C14.1638 15.6083 14.4113 15.3838 14.594 15.11L15.406 13.89C15.5887 13.6162 15.8362 13.3917 16.1264 13.2364C16.4167 13.0812 16.7408 13 17.07 13H20.75" stroke="#DDDDDD" stroke-width="1.5" stroke-linecap="round" stroke-linejoin="round"/>
<path d="M9 9.5H15M10.5 6.5H13.5M5.45 4.11L3.288 11.957C3.09707 12.6492 3.0002 13.364 3 14.082V19C3 19.5304 3.21071 20.0391 3.58579 20.4142C3.96086 20.7893 4.46957 21 5 21H19C19.5304 21 20.0391 20.7893 20.4142 20.4142C20.7893 20.0391 21 19.5304 21 19V14.082C20.9998 13.364 20.9029 12.6492 20.712 11.957L18.55 4.11C18.3844 3.77679 18.1292 3.49637 17.813 3.30028C17.4967 3.10419 17.1321 3.0002 16.76 3H7.24C6.86792 3.0002 6.50326 3.10419 6.18704 3.30028C5.87083 3.49637 5.61558 3.77679 5.45 4.11Z" stroke="#DDDDDD" stroke-width="1.5" stroke-linecap="round" stroke-linejoin="round"/>
</svg>
