<svg width="80" height="80" viewBox="0 0 80 80" fill="none" xmlns="http://www.w3.org/2000/svg">
<path d="M60 43.3267H43.3334V59.9933C43.3334 60.8774 42.9822 61.7252 42.357 62.3504C41.7319 62.9755 40.8841 63.3267 40 63.3267C39.116 63.3267 38.2681 62.9755 37.643 62.3504C37.0179 61.7252 36.6667 60.8774 36.6667 59.9933V43.3267H20C19.116 43.3267 18.2681 42.9755 17.643 42.3504C17.0179 41.7252 16.6667 40.8774 16.6667 39.9933C16.6667 39.1093 17.0179 38.2614 17.643 37.6363C18.2681 37.0112 19.116 36.66 20 36.66H36.6667V19.9933C36.6667 19.1093 37.0179 18.2614 37.643 17.6363C38.2681 17.0112 39.116 16.66 40 16.66C40.8841 16.66 41.7319 17.0112 42.357 17.6363C42.9822 18.2614 43.3334 19.1093 43.3334 19.9933V36.66H60C60.8841 36.66 61.7319 37.0112 62.357 37.6363C62.9822 38.2614 63.3334 39.1093 63.3334 39.9933C63.3334 40.8774 62.9822 41.7252 62.357 42.3504C61.7319 42.9755 60.8841 43.3267 60 43.3267Z" fill="#353535"/>
</svg>
