<svg width="24" height="24" viewBox="0 0 24 24" fill="none" xmlns="http://www.w3.org/2000/svg">
<path d="M19 21C19 20.0807 18.8189 19.1705 18.4672 18.3212C18.1154 17.4719 17.5998 16.7003 16.9497 16.0503C16.2997 15.4002 15.5281 14.8846 14.6788 14.5328C13.8295 14.1811 12.9193 14 12 14C11.0807 14 10.1705 14.1811 9.32122 14.5328C8.47194 14.8846 7.70026 15.4002 7.05025 16.0503C6.40024 16.7003 5.88463 17.4719 5.53284 18.3212C5.18106 19.1705 5 20.0807 5 21M12 11C10.9391 11 9.92172 10.5786 9.17157 9.82843C8.42143 9.07828 8 8.06087 8 7C8 5.93913 8.42143 4.92172 9.17157 4.17157C9.92172 3.42143 10.9391 3 12 3C13.0609 3 14.0783 3.42143 14.8284 4.17157C15.5786 4.92172 16 5.93913 16 7C16 8.06087 15.5786 9.07828 14.8284 9.82843C14.0783 10.5786 13.0609 11 12 11Z" stroke="#DDDDDD" stroke-width="2" stroke-linecap="round" stroke-linejoin="round"/>
</svg>
