<svg width="32" height="32" viewBox="0 0 32 32" fill="none" xmlns="http://www.w3.org/2000/svg">
<g filter="url(#filter0_iii_1_26)">
<path d="M29.967 17.967C29.967 19.071 29.062 19.946 27.98 20.164C26.0538 20.5557 24.2855 21.5057 22.8956 22.8956C21.5057 24.2855 20.5557 26.0538 20.164 27.98C19.946 29.062 19.071 29.967 17.967 29.967H3.96699C2.86199 29.967 1.95899 29.07 2.03799 27.968C2.51977 21.2501 5.40563 14.9306 10.167 10.167C14.9306 5.40563 21.2501 2.51978 27.968 2.038C29.07 1.959 29.967 2.862 29.967 3.967V17.967Z" fill="url(#paint0_linear_1_26)"/>
</g>
<path d="M29.967 17.967C29.967 19.071 29.062 19.946 27.979 20.164C26.0531 20.5558 24.2851 21.5058 22.8954 22.8955C21.5057 24.2852 20.5558 26.0531 20.164 27.979C19.946 29.062 19.071 29.967 17.967 29.967H4.96698C4.96698 23.337 7.60698 16.977 12.287 12.287C14.6089 9.96567 17.3654 8.12446 20.3989 6.86848C23.4325 5.61251 26.6837 4.96638 29.967 4.967V17.967Z" fill="url(#paint1_linear_1_26)"/>
<path d="M29.967 17.967C29.967 19.071 29.062 19.946 27.979 20.164C26.0531 20.5558 24.2851 21.5058 22.8954 22.8955C21.5057 24.2852 20.5558 26.0531 20.164 27.979C19.946 29.062 19.071 29.967 17.967 29.967H4.96698C4.96698 23.337 7.60698 16.977 12.287 12.287C14.6089 9.96567 17.3654 8.12446 20.3989 6.86848C23.4325 5.61251 26.6837 4.96638 29.967 4.967V17.967Z" fill="url(#paint2_linear_1_26)"/>
<path d="M29.967 17.967C29.967 19.071 29.062 19.946 27.979 20.164C26.0531 20.5558 24.2851 21.5058 22.8954 22.8955C21.5057 24.2852 20.5558 26.0531 20.164 27.979C19.946 29.062 19.071 29.967 17.967 29.967H4.96698C4.96698 23.337 7.60698 16.977 12.287 12.287C14.6089 9.96567 17.3654 8.12446 20.3989 6.86848C23.4325 5.61251 26.6837 4.96638 29.967 4.967V17.967Z" fill="url(#paint3_linear_1_26)"/>
<path d="M29.967 17.967C29.967 19.071 29.062 19.946 27.979 20.164C26.0531 20.5558 24.2851 21.5058 22.8954 22.8955C21.5057 24.2852 20.5558 26.0531 20.164 27.979C19.946 29.062 19.071 29.967 17.967 29.967H7.96698C7.96698 24.137 10.287 18.537 14.407 14.407C18.5349 10.2826 24.1317 7.96616 29.967 7.967V17.967Z" fill="url(#paint4_linear_1_26)"/>
<path d="M29.967 17.967C29.967 19.071 29.062 19.946 27.979 20.164C26.0531 20.5558 24.2851 21.5058 22.8954 22.8955C21.5057 24.2852 20.5558 26.0531 20.164 27.979C19.946 29.062 19.071 29.967 17.967 29.967H7.96698C7.96698 24.137 10.287 18.537 14.407 14.407C18.5349 10.2826 24.1317 7.96616 29.967 7.967V17.967Z" fill="url(#paint5_linear_1_26)"/>
<path d="M29.967 17.967C29.967 19.071 29.062 19.946 27.979 20.164C26.0531 20.5558 24.2851 21.5058 22.8954 22.8955C21.5057 24.2852 20.5558 26.0531 20.164 27.979C19.946 29.062 19.071 29.967 17.967 29.967H7.96698C7.96698 24.137 10.287 18.537 14.407 14.407C18.5349 10.2826 24.1317 7.96616 29.967 7.967V17.967Z" fill="url(#paint6_linear_1_26)"/>
<path d="M29.967 17.967C29.967 19.071 29.062 19.946 27.979 20.164C26.0531 20.5558 24.2851 21.5058 22.8954 22.8955C21.5057 24.2852 20.5558 26.0531 20.164 27.979C19.946 29.062 19.071 29.967 17.967 29.967H10.967C10.967 24.927 12.967 20.097 16.527 16.527C20.087 12.967 24.927 10.967 29.967 10.967V17.967Z" fill="url(#paint7_linear_1_26)"/>
<path d="M29.967 17.967C29.967 19.071 29.062 19.946 27.979 20.164C26.0531 20.5558 24.2851 21.5058 22.8954 22.8955C21.5057 24.2852 20.5558 26.0531 20.164 27.979C19.946 29.062 19.071 29.967 17.967 29.967H10.967C10.967 24.927 12.967 20.097 16.527 16.527C20.087 12.967 24.927 10.967 29.967 10.967V17.967Z" fill="url(#paint8_linear_1_26)"/>
<path d="M29.967 17.967C29.967 19.071 29.062 19.946 27.979 20.164C26.0531 20.5558 24.2851 21.5058 22.8954 22.8955C21.5057 24.2852 20.5558 26.0531 20.164 27.979C19.946 29.062 19.071 29.967 17.967 29.967H10.967C10.967 24.927 12.967 20.097 16.527 16.527C20.087 12.967 24.927 10.967 29.967 10.967V17.967Z" fill="url(#paint9_linear_1_26)"/>
<path d="M29.967 17.967C29.967 19.071 29.062 19.946 27.979 20.164C26.0531 20.5558 24.2851 21.5058 22.8954 22.8955C21.5057 24.2852 20.5558 26.0531 20.164 27.979C19.946 29.062 19.071 29.967 17.967 29.967H13.967C13.967 25.727 15.657 21.657 18.657 18.657C21.657 15.657 25.727 13.967 29.967 13.967V17.967Z" fill="url(#paint10_linear_1_26)"/>
<path d="M29.967 17.967C29.967 19.071 29.062 19.946 27.979 20.164C26.0531 20.5558 24.2851 21.5058 22.8954 22.8955C21.5057 24.2852 20.5558 26.0531 20.164 27.979C19.946 29.062 19.071 29.967 17.967 29.967H13.967C13.967 25.727 15.657 21.657 18.657 18.657C21.657 15.657 25.727 13.967 29.967 13.967V17.967Z" fill="url(#paint11_linear_1_26)"/>
<path d="M29.967 17.967C29.967 19.071 29.062 19.946 27.979 20.164C26.0531 20.5558 24.2851 21.5058 22.8954 22.8955C21.5057 24.2852 20.5558 26.0531 20.164 27.979C19.946 29.062 19.071 29.967 17.967 29.967H13.967C13.967 25.727 15.657 21.657 18.657 18.657C21.657 15.657 25.727 13.967 29.967 13.967V17.967Z" fill="url(#paint12_linear_1_26)"/>
<path d="M29.967 18.717C29.967 19.407 29.404 19.959 28.719 20.044C26.5152 20.3218 24.4665 21.3252 22.8958 22.8958C21.3251 24.4665 20.3218 26.5152 20.044 28.719C19.959 29.404 19.407 29.967 18.717 29.967H16.967C16.967 26.517 18.337 23.207 20.777 20.777C23.217 18.337 26.527 16.967 29.967 16.967V18.717Z" fill="url(#paint13_linear_1_26)"/>
<path d="M29.967 18.717C29.967 19.407 29.404 19.959 28.719 20.044C26.5152 20.3218 24.4665 21.3252 22.8958 22.8958C21.3251 24.4665 20.3218 26.5152 20.044 28.719C19.959 29.404 19.407 29.967 18.717 29.967H16.967C16.967 26.517 18.337 23.207 20.777 20.777C23.217 18.337 26.527 16.967 29.967 16.967V18.717Z" fill="url(#paint14_linear_1_26)"/>
<path d="M29.967 18.717C29.967 19.407 29.404 19.959 28.719 20.044C26.5152 20.3218 24.4665 21.3252 22.8958 22.8958C21.3251 24.4665 20.3218 26.5152 20.044 28.719C19.959 29.404 19.407 29.967 18.717 29.967H16.967C16.967 26.517 18.337 23.207 20.777 20.777C23.217 18.337 26.527 16.967 29.967 16.967V18.717Z" fill="url(#paint15_linear_1_26)"/>
<g filter="url(#filter1_f_1_26)">
<path d="M21.965 23.196C21.355 23.836 19.823 25.957 19.545 28.714" stroke="url(#paint16_linear_1_26)" stroke-width="0.4" stroke-linecap="round"/>
</g>
<defs>
<filter id="filter0_iii_1_26" x="1.73317" y="1.78318" width="28.4838" height="28.4338" filterUnits="userSpaceOnUse" color-interpolation-filters="sRGB">
<feFlood flood-opacity="0" result="BackgroundImageFix"/>
<feBlend mode="normal" in="SourceGraphic" in2="BackgroundImageFix" result="shape"/>
<feColorMatrix in="SourceAlpha" type="matrix" values="0 0 0 0 0 0 0 0 0 0 0 0 0 0 0 0 0 0 127 0" result="hardAlpha"/>
<feOffset dx="0.25" dy="0.25"/>
<feGaussianBlur stdDeviation="0.25"/>
<feComposite in2="hardAlpha" operator="arithmetic" k2="-1" k3="1"/>
<feColorMatrix type="matrix" values="0 0 0 0 0.760784 0 0 0 0 0.286275 0 0 0 0 0.372549 0 0 0 1 0"/>
<feBlend mode="normal" in2="shape" result="effect1_innerShadow_1_26"/>
<feColorMatrix in="SourceAlpha" type="matrix" values="0 0 0 0 0 0 0 0 0 0 0 0 0 0 0 0 0 0 127 0" result="hardAlpha"/>
<feOffset dy="-0.25"/>
<feGaussianBlur stdDeviation="0.5"/>
<feComposite in2="hardAlpha" operator="arithmetic" k2="-1" k3="1"/>
<feColorMatrix type="matrix" values="0 0 0 0 0.941176 0 0 0 0 0.207843 0 0 0 0 0.423529 0 0 0 1 0"/>
<feBlend mode="normal" in2="effect1_innerShadow_1_26" result="effect2_innerShadow_1_26"/>
<feColorMatrix in="SourceAlpha" type="matrix" values="0 0 0 0 0 0 0 0 0 0 0 0 0 0 0 0 0 0 127 0" result="hardAlpha"/>
<feOffset dx="-0.6"/>
<feGaussianBlur stdDeviation="0.15"/>
<feComposite in2="hardAlpha" operator="arithmetic" k2="-1" k3="1"/>
<feColorMatrix type="matrix" values="0 0 0 0 1 0 0 0 0 0.368627 0 0 0 0 0.709804 0 0 0 1 0"/>
<feBlend mode="normal" in2="effect2_innerShadow_1_26" result="effect3_innerShadow_1_26"/>
</filter>
<filter id="filter1_f_1_26" x="18.945" y="22.596" width="3.62001" height="6.71801" filterUnits="userSpaceOnUse" color-interpolation-filters="sRGB">
<feFlood flood-opacity="0" result="BackgroundImageFix"/>
<feBlend mode="normal" in="SourceGraphic" in2="BackgroundImageFix" result="shape"/>
<feGaussianBlur stdDeviation="0.2" result="effect1_foregroundBlur_1_26"/>
</filter>
<linearGradient id="paint0_linear_1_26" x1="3.03199" y1="25.794" x2="21.604" y2="8.029" gradientUnits="userSpaceOnUse">
<stop stop-color="#FF4B5F"/>
<stop offset="1" stop-color="#F63EA0"/>
</linearGradient>
<linearGradient id="paint1_linear_1_26" x1="8.92098" y1="29.026" x2="27.36" y2="7.038" gradientUnits="userSpaceOnUse">
<stop stop-color="#FF8E54"/>
<stop offset="1" stop-color="#FFC751"/>
</linearGradient>
<linearGradient id="paint2_linear_1_26" x1="30.047" y1="6.81" x2="29.066" y2="6.81" gradientUnits="userSpaceOnUse">
<stop stop-color="#FFEF61"/>
<stop offset="1" stop-color="#FFEF61" stop-opacity="0"/>
</linearGradient>
<linearGradient id="paint3_linear_1_26" x1="6.39898" y1="29.967" x2="6.39898" y2="29.436" gradientUnits="userSpaceOnUse">
<stop offset="0.326" stop-color="#FF677B"/>
<stop offset="1" stop-color="#FF677B" stop-opacity="0"/>
</linearGradient>
<linearGradient id="paint4_linear_1_26" x1="11.446" y1="29.139" x2="27.673" y2="9.79" gradientUnits="userSpaceOnUse">
<stop stop-color="#FFD05E"/>
<stop offset="1" stop-color="#FFE38D"/>
</linearGradient>
<linearGradient id="paint5_linear_1_26" x1="30.038" y1="9.589" x2="29.167" y2="9.589" gradientUnits="userSpaceOnUse">
<stop stop-color="#FFFF9F"/>
<stop offset="1" stop-color="#FFFF9F" stop-opacity="0"/>
</linearGradient>
<linearGradient id="paint6_linear_1_26" x1="9.22698" y1="29.967" x2="9.22698" y2="29.5" gradientUnits="userSpaceOnUse">
<stop offset="0.326" stop-color="#FF9783"/>
<stop offset="1" stop-color="#FF9783" stop-opacity="0"/>
</linearGradient>
<linearGradient id="paint7_linear_1_26" x1="13.972" y1="29.252" x2="27.986" y2="12.541" gradientUnits="userSpaceOnUse">
<stop stop-color="#48CF92"/>
<stop offset="1" stop-color="#60E4AB"/>
</linearGradient>
<linearGradient id="paint8_linear_1_26" x1="30.028" y1="12.368" x2="29.133" y2="12.368" gradientUnits="userSpaceOnUse">
<stop stop-color="#74FFB9"/>
<stop offset="1" stop-color="#74FFB9" stop-opacity="0"/>
</linearGradient>
<linearGradient id="paint9_linear_1_26" x1="12.055" y1="29.967" x2="12.055" y2="29.564" gradientUnits="userSpaceOnUse">
<stop offset="0.326" stop-color="#5E97B1"/>
<stop offset="1" stop-color="#5E97B1" stop-opacity="0"/>
</linearGradient>
<linearGradient id="paint10_linear_1_26" x1="16.497" y1="29.365" x2="28.299" y2="15.292" gradientUnits="userSpaceOnUse">
<stop stop-color="#4D81F6"/>
<stop offset="1" stop-color="#46A0FF"/>
</linearGradient>
<linearGradient id="paint11_linear_1_26" x1="30.018" y1="15.146" x2="29.265" y2="15.146" gradientUnits="userSpaceOnUse">
<stop stop-color="#55C3FF"/>
<stop offset="1" stop-color="#55C3FF" stop-opacity="0"/>
</linearGradient>
<linearGradient id="paint12_linear_1_26" x1="14.883" y1="29.967" x2="14.883" y2="29.627" gradientUnits="userSpaceOnUse">
<stop offset="0.326" stop-color="#6160FF"/>
<stop offset="1" stop-color="#6160FF" stop-opacity="0"/>
</linearGradient>
<linearGradient id="paint13_linear_1_26" x1="19.023" y1="29.478" x2="28.611" y2="18.044" gradientUnits="userSpaceOnUse">
<stop stop-color="#8569CA"/>
<stop offset="1" stop-color="#9970E2"/>
</linearGradient>
<linearGradient id="paint14_linear_1_26" x1="30.009" y1="17.925" x2="29.396" y2="17.925" gradientUnits="userSpaceOnUse">
<stop stop-color="#B28AFA"/>
<stop offset="1" stop-color="#B28AFA" stop-opacity="0"/>
</linearGradient>
<linearGradient id="paint15_linear_1_26" x1="17.711" y1="29.967" x2="17.711" y2="29.691" gradientUnits="userSpaceOnUse">
<stop offset="0.326" stop-color="#894FE0"/>
<stop offset="1" stop-color="#894FE0" stop-opacity="0"/>
</linearGradient>
<linearGradient id="paint16_linear_1_26" x1="19.828" y1="28.583" x2="22.096" y2="23.349" gradientUnits="userSpaceOnUse">
<stop stop-color="#977DDD"/>
<stop offset="1" stop-color="#977DDD" stop-opacity="0"/>
</linearGradient>
</defs>
</svg>
